<svg width="1440" height="1024" viewBox="0 0 1440 1024" fill="none" xmlns="http://www.w3.org/2000/svg">
<g filter="url(#filter0_di_23_816)">
<g clip-path="url(#clip0_23_816)">
<rect y="-119" width="1440" height="1261" rx="48" fill="#000211"/>
<g filter="url(#filter1_f_23_816)">
<path d="M1312.74 763.407C1357.87 726.833 1376.32 686.787 1366.38 646.989C1356.44 607.192 1318.43 568.936 1255.89 535.778C1193.34 502.619 1108.29 475.634 1008.64 457.331C908.986 439.028 797.966 430 685.899 431.088C573.832 432.175 464.355 443.343 367.644 463.551C270.934 483.76 190.128 512.355 132.739 546.677C75.3494 581 43.2388 619.936 39.3917 659.867C35.5445 699.798 60.0858 739.428 110.734 775.072L704 668L1312.74 763.407Z" fill="url(#paint0_radial_23_816)"/>
</g>
<rect x="556" y="445" width="1" height="1" rx="0.5" fill="#D9D9D9"/>
<rect x="626" y="552" width="1" height="1" rx="0.5" fill="#D9D9D9"/>
<rect x="806" y="461" width="1" height="1" rx="0.5" fill="#D9D9D9"/>
<rect x="772" y="522" width="1" height="1" rx="0.5" fill="#D9D9D9"/>
<rect x="778" y="612" width="1" height="1" rx="0.5" fill="#D9D9D9"/>
<rect x="346" y="591" width="1" height="1" rx="0.5" fill="#D9D9D9" fill-opacity="0.25"/>
<rect x="347" y="542" width="1" height="1" rx="0.5" fill="#D9D9D9" fill-opacity="0.25"/>
<rect x="418" y="495" width="1" height="1" rx="0.5" fill="#D9D9D9" fill-opacity="0.8"/>
<rect x="283" y="536" width="1" height="1" rx="0.5" fill="#D9D9D9" fill-opacity="0.1"/>
<rect x="284" y="629" width="1" height="1" rx="0.5" fill="#D9D9D9" fill-opacity="0.8"/>
<rect x="359" y="480" width="1" height="1" rx="0.5" fill="#D9D9D9" fill-opacity="0.8"/>
<rect x="582" y="631" width="1" height="1" rx="0.5" fill="#D9D9D9"/>
<rect x="489" y="613" width="1" height="1" rx="0.5" fill="#D9D9D9" fill-opacity="0.6"/>
<rect x="887" y="592" width="1" height="1" rx="0.5" fill="#D9D9D9" fill-opacity="0.1"/>
<rect x="923" y="560" width="1" height="1" rx="0.5" fill="#D9D9D9" fill-opacity="0.1"/>
<rect x="834" y="537" width="5" height="5" rx="2.5" fill="#D9D9D9" fill-opacity="0.7"/>
<rect x="899" y="500" width="5" height="5" rx="2.5" fill="#D9D9D9" fill-opacity="0.75"/>
<rect x="672" y="426" width="5" height="5" rx="2.5" fill="#D9D9D9" fill-opacity="0.8"/>
<rect x="651" y="586" width="5" height="5" rx="2.5" fill="#D9D9D9" fill-opacity="0.72"/>
<rect x="746" y="568" width="5" height="5" rx="2.5" fill="#D9D9D9" fill-opacity="0.5"/>
<rect x="966" y="553" width="5" height="5" rx="2.5" fill="#D9D9D9" fill-opacity="0.1"/>
<rect x="918" y="581" width="5" height="5" rx="2.5" fill="#D9D9D9" fill-opacity="0.75"/>
<rect x="968" y="504" width="5" height="5" rx="2.5" fill="#D9D9D9" fill-opacity="0.1"/>
<rect x="930" y="461" width="5" height="5" rx="2.5" fill="#D9D9D9" fill-opacity="0.8"/>
<rect x="983" y="626" width="5" height="5" rx="2.5" fill="#D9D9D9"/>
<rect x="446" y="558" width="5" height="5" rx="2.5" fill="#D9D9D9"/>
<rect x="473" y="496" width="5" height="5" rx="2.5" fill="#D9D9D9"/>
<rect x="431" y="445" width="5" height="5" rx="2.5" fill="#D9D9D9"/>
<rect x="431" y="445" width="5" height="5" rx="2.5" fill="#D9D9D9" fill-opacity="0.5"/>
<rect x="579" y="390" width="5" height="5" rx="2.5" fill="#D9D9D9" fill-opacity="0.8"/>
<rect x="531" y="538" width="1" height="1" rx="0.5" fill="#D9D9D9"/>
<rect x="583" y="481" width="1" height="1" rx="0.5" fill="#D9D9D9"/>
<rect x="644" y="496" width="1" height="1" rx="0.5" fill="#D9D9D9"/>
<rect x="704" y="561" width="1" height="1" rx="0.5" fill="#D9D9D9"/>
<rect x="677" y="504" width="1" height="1" rx="0.5" fill="#D9D9D9" fill-opacity="0.55"/>
<rect x="720" y="482" width="1" height="1" rx="0.5" fill="#D9D9D9" fill-opacity="0.55"/>
<rect x="677" y="463" width="1" height="1" rx="0.5" fill="#D9D9D9" fill-opacity="0.8"/>
<rect x="586" y="515" width="1" height="1" rx="0.5" fill="#D9D9D9"/>
</g>
</g>
<defs>
<filter id="filter0_di_23_816" x="-95" y="-154" width="1590" height="1411" filterUnits="userSpaceOnUse" color-interpolation-filters="sRGB">
<feFlood flood-opacity="0" result="BackgroundImageFix"/>
<feColorMatrix in="SourceAlpha" type="matrix" values="0 0 0 0 0 0 0 0 0 0 0 0 0 0 0 0 0 0 127 0" result="hardAlpha"/>
<feOffset dx="-20" dy="40"/>
<feGaussianBlur stdDeviation="37.5"/>
<feComposite in2="hardAlpha" operator="out"/>
<feColorMatrix type="matrix" values="0 0 0 0 1 0 0 0 0 1 0 0 0 0 1 0 0 0 0.25 0"/>
<feBlend mode="hard-light" in2="BackgroundImageFix" result="effect1_dropShadow_23_816"/>
<feBlend mode="normal" in="SourceGraphic" in2="effect1_dropShadow_23_816" result="shape"/>
<feColorMatrix in="SourceAlpha" type="matrix" values="0 0 0 0 0 0 0 0 0 0 0 0 0 0 0 0 0 0 127 0" result="hardAlpha"/>
<feOffset dy="6"/>
<feGaussianBlur stdDeviation="12.5"/>
<feComposite in2="hardAlpha" operator="arithmetic" k2="-1" k3="1"/>
<feColorMatrix type="matrix" values="0 0 0 0 1 0 0 0 0 1 0 0 0 0 1 0 0 0 0.25 0"/>
<feBlend mode="lighten" in2="shape" result="effect2_innerShadow_23_816"/>
</filter>
<filter id="filter1_f_23_816" x="-161" y="231" width="1730" height="744.072" filterUnits="userSpaceOnUse" color-interpolation-filters="sRGB">
<feFlood flood-opacity="0" result="BackgroundImageFix"/>
<feBlend mode="normal" in="SourceGraphic" in2="BackgroundImageFix" result="shape"/>
<feGaussianBlur stdDeviation="100" result="effect1_foregroundBlur_23_816"/>
</filter>
<radialGradient id="paint0_radial_23_816" cx="0" cy="0" r="1" gradientUnits="userSpaceOnUse" gradientTransform="translate(704 552.321) rotate(90) scale(352.679 989.583)">
<stop stop-color="#6706B2" stop-opacity="0.68"/>
<stop offset="1" stop-color="#24214B" stop-opacity="0"/>
</radialGradient>
<clipPath id="clip0_23_816">
<rect y="-119" width="1440" height="1261" rx="48" fill="white"/>
</clipPath>
</defs>
</svg>
